<svg xmlns="http://www.w3.org/2000/svg" width="27.568" height="26.536" viewBox="0 0 27.568 26.536">
  <g id="Group_41" data-name="Group 41" transform="translate(-3100.779 -226.28)">
    <path id="Path_14" data-name="Path 14" d="M3205.153,234.364c-.5-.161,2.689,2.848,6.457,13.076.532.222.495.115,1.552-1.736s11.931-18.435,14.45-19.382c-.248-.44-4.628,2.661-5.794,3.784s-9.143,8.753-9.8,9.126A72.955,72.955,0,0,0,3205.153,234.364Z" transform="translate(-99.265)" fill="#39b54a"/>
    <path id="Path_15" data-name="Path 15" d="M3124.087,254.67v15.638a1.512,1.512,0,0,1-1.51,1.51h-18.138a1.512,1.512,0,0,1-1.51-1.51V252.17a1.512,1.512,0,0,1,1.51-1.51h16.438l.57-.548a21.586,21.586,0,0,1,1.873-1.526,3.661,3.661,0,0,0-.744-.076h-18.138a3.665,3.665,0,0,0-3.66,3.66v18.138a3.665,3.665,0,0,0,3.66,3.66h18.138a3.664,3.664,0,0,0,3.66-3.66V252.17c0-.1,0-.195-.012-.291C3125.637,252.613,3124.931,253.529,3124.087,254.67Z" transform="translate(0 -21.152)" fill="#414042"/>
  </g>
</svg>
