<?xml version="1.0" encoding="utf-8"?>
<!-- Generator: Adobe Illustrator 26.0.3, SVG Export Plug-In . SVG Version: 6.00 Build 0)  -->
<svg version="1.1" id="Glyph" xmlns="http://www.w3.org/2000/svg" xmlns:xlink="http://www.w3.org/1999/xlink" x="0px" y="0px"
	 viewBox="0 0 32 32" style="enable-background:new 0 0 32 32;" xml:space="preserve">
<style type="text/css">
	.st0{fill-rule:evenodd;clip-rule:evenodd;fill:#587A4D;}
</style>
<path class="st0" d="M27.2,16.7h-0.8c0.8,0,1.4-0.6,1.4-1.4v-0.4c0-1-0.8-1.8-1.8-1.8h-4.3c-0.2,0-0.3-0.2-0.3-0.4
	c0.3-1.2,0.6-2.5,0.6-3.6c0-1.3,0.1-4-1.5-4.4c-1.3-0.2-1.8,1.2-2,2.3c-0.4,1.9-1,3.2-2.2,4.7c-0.9,1.2-2.6,2.1-4.1,2.3
	c-0.3,0-0.5,0.3-0.5,0.6V25c0,0.3,0.2,0.6,0.6,0.6c0.5,0,1,0.1,1.6,0.3c2.1,0.7,2.6,1.2,5,1.3c1.9,0,3.7,0,5.6,0
	c0.9,0,1.7-0.8,1.7-1.7v-0.6c0-0.6-0.5-1.1-1.1-1.1h1.2c0.8,0,1.4-0.6,1.4-1.4v-0.8c0-0.8-0.6-1.4-1.4-1.4h0.9
	c0.8,0,1.4-0.6,1.4-1.4v-0.8C28.5,17.3,27.9,16.7,27.2,16.7z M10,13.7h-6c-0.3,0-0.6,0.3-0.6,0.6v11.1c0,0.3,0.3,0.6,0.6,0.6h6
	c0.3,0,0.6-0.3,0.6-0.6V14.3C10.7,14,10.4,13.7,10,13.7z M8.5,25.2c-0.8,0-1.4-0.6-1.4-1.4c0-0.8,0.6-1.4,1.4-1.4
	c0.8,0,1.4,0.6,1.4,1.4C9.9,24.6,9.3,25.2,8.5,25.2z"/>
</svg>
